<svg xmlns="http://www.w3.org/2000/svg" viewBox="0 0 600 600" width="600" height="600">
  <!-- Black rounded square background -->
  <rect width="600" height="600" rx="80" ry="80" fill="#000000"/>

  <!-- Rocket icon: white outline, tilted ~45°, matching the provided image -->
  <g transform="translate(300,300) rotate(-45) translate(-130,-140)" fill="none" stroke="white" stroke-width="28" stroke-linecap="round" stroke-linejoin="round">
    <!-- Rocket body (elongated oval/lens) -->
    <path d="M130 30 C190 30, 240 75, 240 145 C240 215, 190 260, 130 260 C70 260, 20 215, 20 145 C20 75, 70 30, 130 30 Z"/>
    <!-- Porthole/window -->
    <circle cx="155" cy="120" r="32"/>
    <!-- Left fin/booster -->
    <path d="M50 210 C30 230, 10 270, 20 290 C40 285, 75 265, 90 240"/>
    <!-- Right fin/booster -->
    <path d="M210 210 C230 230, 250 270, 240 290 C220 285, 185 265, 170 240"/>
    <!-- Exhaust nozzle / bottom detail -->
    <path d="M90 255 C95 275, 110 285, 130 285 C150 285, 165 275, 170 255"/>
  </g>
</svg>
